<svg xmlns="http://www.w3.org/2000/svg" width="95" height="130" viewBox="0 0 95 130">
  <g fill="none" fill-rule="evenodd">
    <path fill="#FFF" d="M17.3011261 86.1867072L19.3038288 86.1867072C21.0617568 86.1867072 22.1743694 85.5863125 22.6416667 84.1631546 22.8196847 83.540523 22.9309459 82.6506217 22.9309459 80.9832862 22.9309459 79.315523 22.8196847 78.4260493 22.6416667 77.8034178 22.1743694 76.3798322 21.0617568 75.7794375 19.3038288 75.7794375L17.3011261 75.7794375C17.2121171 75.7794375 17.1676126 75.8243388 17.1676126 75.9132862L17.1676126 86.0532862C17.1676126 86.1422336 17.2121171 86.1867072 17.3011261 86.1867072L17.3011261 86.1867072zM14.5418468 74.6008849C14.5418468 73.8893059 14.9868919 73.4223322 15.7212162 73.4223322L19.4373423 73.4223322C22.5081532 73.4223322 24.3773423 74.5119375 25.1561712 76.8917072 25.4454505 77.825227 25.6012162 78.8258849 25.6012162 80.9832862 25.6012162 83.1402599 25.4454505 84.1409178 25.1561712 85.0748651 24.3773423 87.4542072 22.5081532 88.5442401 19.4373423 88.5442401L15.7212162 88.5442401C14.9868919 88.5442401 14.5418468 88.0995033 14.5418468 87.3879243L14.5418468 74.6008849zM36.749723 77.9364112C36.749723 76.6248651 35.8151284 75.7794375 34.4354887 75.7794375L31.2089122 75.7794375C31.1199032 75.7794375 31.0749707 75.8243388 31.0749707 75.9132862L31.0749707 79.9381546C31.0749707 80.027102 31.1199032 80.071148 31.2089122 80.071148L34.4354887 80.071148C35.8151284 80.071148 36.749723 79.2265757 36.749723 77.9364112M36.7719752 87.8326612L34.0349482 82.4286809 31.2089122 82.4286809C31.1199032 82.4286809 31.0749707 82.472727 31.0749707 82.5616743L31.0749707 87.2763125C31.0749707 88.1213125 30.5409167 88.6549967 29.7625158 88.6549967 29.0055113 88.6549967 28.4496329 88.1213125 28.4496329 87.2763125L28.4496329 74.6008849C28.4496329 73.8893059 28.8946779 73.4223322 29.6285743 73.4223322L34.5244977 73.4223322C37.3060293 73.4223322 39.3532365 75.2679901 39.3532365 77.9364112 39.3532365 79.8492072 38.2851284 81.3164112 36.660714 82.0061809L39.130714 86.6092072C39.2642275 86.8542401 39.3309842 87.1428914 39.3309842 87.4097336 39.3309842 88.0995033 38.8418626 88.6549967 38.0626059 88.6549967 37.5062995 88.6549967 37.0616824 88.4103914 36.7719752 87.8326612M50.27875 77.5142105C49.8782095 76.2911842 48.9881194 75.5347039 47.4972185 75.5347039 46.0285698 75.5347039 45.1384797 76.2911842 44.7379392 77.5142105 44.5154167 78.1590789 44.4264077 78.9596053 44.4264077 80.9831579 44.4264077 83.0067105 44.5154167 83.8072368 44.7379392 84.4525329 45.1384797 85.6751316 46.0285698 86.4316118 47.4972185 86.4316118 48.9881194 86.4316118 49.8782095 85.6751316 50.27875 84.4525329 50.5017005 83.8072368 50.5907095 83.0067105 50.5907095 80.9831579 50.5907095 78.9596053 50.5017005 78.1590789 50.27875 77.5142105M42.2011824 76.8026316C42.9795833 74.4228618 44.893705 73.1775987 47.4972185 73.1775987 50.1234122 73.1775987 52.0366779 74.4228618 52.8159347 76.8026316 53.1719707 77.8922368 53.2609797 78.7817105 53.2609797 80.9831579 53.2609797 83.1846053 53.1719707 84.0740789 52.8159347 85.1641118 52.0366779 87.5430263 50.1234122 88.7882895 47.4972185 88.7882895 44.893705 88.7882895 42.9795833 87.5430263 42.2011824 85.1641118 41.8451464 84.0740789 41.7561374 83.1846053 41.7561374 80.9831579 41.7561374 78.7817105 41.8451464 77.8922368 42.2011824 76.8026316M56.1531306 74.8899638C56.1531306 73.9115428 56.7316892 73.311148 57.6436036 73.311148 58.4006081 73.311148 58.8901577 73.7558849 59.3797072 74.6008849L64.9427703 84.0297336 65.009527 84.0297336 65.009527 74.6008849C65.009527 73.7781217 65.5217568 73.311148 66.2338288 73.311148 66.9236486 73.311148 67.4350225 73.7781217 67.4350225 74.6008849L67.4350225 87.0761809C67.4350225 88.054602 66.8568919 88.6549967 65.9668018 88.6549967 65.187545 88.6549967 64.6984234 88.2102599 64.2084459 87.3652599L58.6676351 77.9364112 58.5786261 77.9364112 58.5786261 87.3652599C58.5786261 88.1884507 58.0668243 88.6549967 57.3770045 88.6549967 56.6649324 88.6549967 56.1531306 88.1884507 56.1531306 87.3652599L56.1531306 74.8899638zM70.7729032 74.6009704C70.7729032 73.8893914 71.2179482 73.4224178 71.9522725 73.4224178L79.496214 73.4224178C80.3195473 73.4224178 80.8313491 73.9116283 80.8313491 74.6009704 80.8313491 75.2903125 80.3195473 75.779523 79.496214 75.779523L73.5321824 75.779523C73.4431734 75.779523 73.3986689 75.8239967 73.3986689 75.9129441L73.3986689 79.6042599C73.3986689 79.6932072 73.4431734 79.7381086 73.5321824 79.7381086L78.3831734 79.7381086C79.2065068 79.7381086 79.7183086 80.2268914 79.7183086 80.9166612 79.7183086 81.6060033 79.2065068 82.0947862 78.3831734 82.0947862L73.5321824 82.0947862C73.4431734 82.0947862 73.3986689 82.1396875 73.3986689 82.2286349L73.3986689 86.0533717C73.3986689 86.1423191 73.4431734 86.1867928 73.5321824 86.1867928L79.496214 86.1867928C80.3195473 86.1867928 80.8313491 86.6760033 80.8313491 87.3653454 80.8313491 88.0546875 80.3195473 88.543898 79.496214 88.543898L71.9522725 88.543898C71.2179482 88.543898 70.7729032 88.0769243 70.7729032 87.3653454L70.7729032 74.6009704zM8.52316892 98.0405263C8.12262838 96.8175 7.23253829 96.0614474 5.74163739 96.0614474 4.27256081 96.0614474 3.38247072 96.8175 2.98235811 98.0405263 2.75940766 98.6853947 2.67039865 99.4859211 2.67039865 101.509474 2.67039865 103.533454 2.75940766 104.33398 2.98235811 104.978849 3.38247072 106.201875 4.27256081 106.957928 5.74163739 106.957928 7.23253829 106.957928 8.12262838 106.201875 8.52316892 104.978849 8.74569144 104.33398 8.83512838 103.533454 8.83512838 101.509474 8.83512838 99.4859211 8.74569144 98.6853947 8.52316892 98.0405263M.445173423 97.3289474C1.22400225 94.9491776 3.13812387 93.7039145 5.74163739 93.7039145 8.36740315 93.7039145 10.2810968 94.9491776 11.0599257 97.3289474 11.4159617 98.4185526 11.5053986 99.3080263 11.5053986 101.509474 11.5053986 103.711349 11.4159617 104.600822 11.0599257 105.690428 10.2810968 108.06977 8.36740315 109.315033 5.74163739 109.315033 3.13812387 109.315033 1.22400225 108.06977.445173423 105.690428.0891373874 104.600822.000128378378 103.711349.000128378378 101.509474.000128378378 99.3080263.0891373874 98.4185526.445173423 97.3289474M14.3975923 95.2162336C14.3975923 94.3712336 14.9538986 93.8375493 15.7100473 93.8375493 16.4670518 93.8375493 17.0233581 94.3712336 17.0233581 95.2162336L17.0233581 106.579687C17.0233581 106.668635 17.0678626 106.713536 17.1568716 106.713536L23.1209032 106.713536C23.9442365 106.713536 24.4560383 107.202319 24.4560383 107.892089 24.4560383 108.581003 23.9442365 109.070214 23.1209032 109.070214L15.7100473 109.070214C14.9093941 109.070214 14.3975923 108.558766 14.3975923 107.75824L14.3975923 95.2162336zM26.8363446 107.80297L26.8363446 102.888201 22.8309392 95.7279375C22.6974257 95.4829046 22.6306689 95.238727 22.6306689 95.0163586 22.6306689 94.3265888 23.164723 93.8378059 23.876795 93.8378059 24.3885968 93.8378059 24.7668851 94.104648 25.0339122 94.5934309L28.1492275 100.28649 28.2164122 100.28649 31.3094752 94.5934309C31.5760743 94.0824112 31.9770428 93.8378059 32.4661644 93.8378059 33.1782365 93.8378059 33.668214 94.3265888 33.668214 95.0163586 33.668214 95.238727 33.6014572 95.4829046 33.4679437 95.7279375L29.4625383 102.888201 29.4625383 107.80297C29.4625383 108.64797 28.9058041 109.181655 28.1492275 109.181655 27.3930788 109.181655 26.8363446 108.64797 26.8363446 107.80297M35.7818784 95.4166645C35.7818784 94.4382434 36.3604369 93.8378487 37.250527 93.8378487 38.0293559 93.8378487 38.3853919 94.2603487 38.8081847 95.1938684L42.546991 103.577586 42.636 103.577586 46.2853694 95.1938684C46.685482 94.2603487 47.041518 93.8378487 47.8207748 93.8378487 48.7108649 93.8378487 49.2671712 94.4382434 49.2671712 95.4166645L49.2671712 107.891961C49.2671712 108.714724 48.7549414 109.18127 48.0655495 109.18127 47.3534775 109.18127 46.8416757 108.714724 46.8416757 107.891961L46.8416757 99.5971908 46.7304144 99.5971908 43.9711351 105.86798C43.5701667 106.779691 43.1700541 107.046533 42.546991 107.046533 41.9016757 107.046533 41.5007072 106.779691 41.1001667 105.86798L38.3186351 99.5971908 38.2073739 99.5971908 38.2073739 107.891961C38.2073739 108.714724 37.6955721 109.18127 37.0053243 109.18127 36.2932523 109.18127 35.7818784 108.714724 35.7818784 107.891961L35.7818784 95.4166645zM60.8599527 98.6410493C60.8599527 97.2619375 59.9035338 96.3061809 58.3454482 96.3061809L55.3636464 96.3061809C55.2746374 96.3061809 55.2301329 96.3506546 55.2301329 96.439602L55.2301329 100.842497C55.2301329 100.931444 55.2746374 100.975918 55.3636464 100.975918L58.3454482 100.975918C59.9035338 100.975918 60.8599527 100.04197 60.8599527 98.6410493M52.6043671 107.803056L52.6043671 95.1272007C52.6043671 94.4156217 53.0494122 93.948648 53.7614842 93.948648L58.501214 93.948648C61.4389392 93.948648 63.4861464 95.8387796 63.4861464 98.6410493 63.4861464 101.465128 61.4389392 103.35526 58.501214 103.35526L55.3636464 103.35526C55.2746374 103.35526 55.2301329 103.399734 55.2301329 103.488681L55.2301329 107.803056C55.2301329 108.647628 54.6738266 109.181313 53.9168221 109.181313 53.1606734 109.181313 52.6043671 108.647628 52.6043671 107.803056M65.9110856 95.2162336C65.9110856 94.3712336 66.4673919 93.8375493 67.2235405 93.8375493 67.980545 93.8375493 68.5368514 94.3712336 68.5368514 95.2162336L68.5368514 107.803141C68.5368514 108.647714 67.980545 109.181398 67.2235405 109.181398 66.4673919 109.181398 65.9110856 108.647714 65.9110856 107.803141L65.9110856 95.2162336zM71.4294302 101.509602C71.4294302 99.2636809 71.5406914 98.3964441 71.852223 97.3508849 72.6310518 94.9719704 74.500241 93.7040428 77.1037545 93.7040428 79.2177185 93.7040428 80.9088896 94.6824638 81.6658941 96.1727599 81.7989797 96.4173651 81.8879887 96.6619704 81.8879887 96.9510493 81.8879887 97.6403914 81.3539347 98.129602 80.686795 98.129602 80.24175 98.129602 79.885714 97.9294704 79.5296779 97.418023 78.9284392 96.5063125 78.2163671 96.0615757 77.1037545 96.0615757 75.6573581 96.0615757 74.7895203 96.8172007 74.3889797 98.0406546 74.1887095 98.685523 74.0997005 99.3526283 74.0997005 101.509602 74.0997005 103.666576 74.1887095 104.333681 74.3889797 104.978549 74.7895203 106.202003 75.6573581 106.957628 77.1037545 106.957628 78.2163671 106.957628 78.9284392 106.512891 79.5296779 105.601181 79.885714 105.089734 80.24175 104.889602 80.686795 104.889602 81.3539347 104.889602 81.8879887 105.378813 81.8879887 106.090391 81.8879887 106.357661 81.7989797 106.601839 81.6658941 106.846444 80.9088896 108.33674 79.2177185 109.315161 77.1037545 109.315161 74.500241 109.315161 72.6310518 108.047234 71.852223 105.668319 71.5406914 104.62276 71.4294302 103.755523 71.4294302 101.509602M84.4912455 107.958714C84.0684527 107.691444 83.82325 107.291181 83.82325 106.824635 83.82325 106.202003 84.3132275 105.623418 85.0026194 105.623418 85.2923266 105.623418 85.5816059 105.712365 85.8486329 105.868023 87.00575 106.557793 88.0738581 106.957628 89.3422365 106.957628 91.2114257 106.957628 92.2795338 106.090391 92.2795338 104.778418 92.2795338 103.68924 91.6564707 102.954997 89.5429347 102.688155L88.7636779 102.57697C85.7146914 102.176707 84.179286 100.753549 84.179286 98.2403586 84.179286 95.5056546 86.1824167 93.7040428 89.2754797 93.7040428 90.9221464 93.7040428 92.5024842 94.1487796 93.3925743 94.7273651 93.8598716 94.9942072 94.059714 95.3718059 94.059714 95.7947336 94.059714 96.4614112 93.5705923 96.9510493 92.9025968 96.9510493 92.6355698 96.9510493 92.3244662 96.862102 92.0792635 96.7509178 91.2114257 96.3284178 90.2990833 96.0615757 89.2532275 96.0615757 87.6510653 96.0615757 86.8499842 96.9288125 86.8499842 98.0851283 86.8499842 99.1747336 87.6065608 99.8418388 89.6092635 100.130918L90.366268 100.242102C93.4593311 100.664602 94.9498041 102.08776 94.9498041 104.667234 94.9498041 107.358319 93.0138581 109.315161 89.208723 109.315161 87.1615158 109.315161 85.5148491 108.625819 84.4912455 107.958714"/>
    <path fill="#FF2439" d="M25.0556509 126.950345L29.9960788 120.835214C30.6191419 120.056924 30.9974302 119.322681 30.9974302 118.478109 30.9974302 117.254655 30.2181734 116.454128 28.9720473 116.454128 27.8816869 116.454128 27.2367995 116.92153 26.8580833 117.922188 26.6355608 118.499918 26.212768 118.811661 25.7013941 118.811661 25.0111464 118.811661 24.5215968 118.388734 24.5215968 117.699391 24.5215968 117.588207 24.5438491 117.477451 24.5661014 117.343602 24.8998851 115.80926 26.4575428 114.230444 29.039232 114.230444 31.8207635 114.230444 33.4896824 116.032056 33.4896824 118.433207 33.4896824 119.856365 32.9106959 120.990444 31.9765293 122.124951L27.6369122 127.328372 27.6369122 127.372845 32.4438266 127.372845C33.1781509 127.372845 33.6009437 127.839819 33.6009437 128.485115 33.6009437 129.129984 33.1781509 129.59653 32.4438266 129.59653L25.4784437 129.59653C24.7441194 129.59653 24.2990743 129.151793 24.2990743 128.507352 24.2990743 127.995477 24.4993446 127.617878 25.0556509 126.950345M41.211214 127.617664C42.1458086 127.617664 42.7906959 127.216974 43.0799752 126.416447 43.235741 125.949901 43.2806734 125.438026 43.2806734 122.035789 43.2806734 118.633553 43.235741 118.122105 43.0799752 117.655132 42.7906959 116.854605 42.1458086 116.454342 41.211214 116.454342 40.2761914 116.454342 39.6531284 116.854605 39.364277 117.655132 39.2080833 118.122105 39.1635788 118.633553 39.1635788 122.035789 39.1635788 125.438026 39.2080833 125.949901 39.364277 126.416447 39.6531284 127.216974 40.2761914 127.617664 41.211214 127.617664M36.6045698 122.035789C36.6045698 118.522368 36.7158311 117.810789 36.9161014 117.18773 37.5169122 115.297599 38.9633086 114.23023 41.211214 114.23023 43.4586914 114.23023 44.9050878 115.297599 45.5281509 117.18773 45.7284212 117.810789 45.8396824 118.522368 45.8396824 122.035789 45.8396824 125.549211 45.7284212 126.260789 45.5281509 126.883849 44.9050878 128.77398 43.4586914 129.841349 41.211214 129.841349 38.9633086 129.841349 37.5169122 128.77398 36.9161014 126.883849 36.7158311 126.260789 36.6045698 125.549211 36.6045698 122.035789M52.8266757 117.432592L52.7821712 117.432592 51.1128243 118.611145C50.8907297 118.766803 50.6237027 118.833513 50.3566757 118.833513 49.8003694 118.833513 49.3103919 118.34473 49.3103919 117.744336 49.3103919 117.343645 49.5551667 116.965618 49.9783874 116.654303L52.4038829 114.942066C52.9379369 114.564039 53.4052342 114.363908 53.9611126 114.363908 54.7848739 114.363908 55.3189279 114.942066 55.3189279 115.831539L55.3189279 128.395783C55.3189279 129.218974 54.8071261 129.707757 54.0728018 129.707757 53.3384775 129.707757 52.8266757 129.218974 52.8266757 128.395783L52.8266757 117.432592zM67.9583784 118.855836C67.9583784 117.432678 67.0682883 116.454257 65.6441441 116.454257 64.22 116.454257 63.3299099 117.432678 63.3299099 118.855836 63.3299099 120.278993 64.22 121.257414 65.6441441 121.257414 67.0682883 121.257414 67.9583784 120.278993 67.9583784 118.855836M63.7077703 127.884421L66.3112838 123.325868 66.2667793 123.281395C66.0442568 123.392151 65.5992117 123.481099 65.1323423 123.481099 62.7958559 123.481099 60.8149775 121.791099 60.8149775 119.011493 60.8149775 115.920572 62.9511937 114.230572 65.6441441 114.230572 68.3366667 114.230572 70.4728829 115.920572 70.4728829 118.900309 70.4728829 120.101099 70.0500901 121.302316 69.4711036 122.369684L65.799482 129.018928C65.5547072 129.485474 65.1541667 129.707842 64.6868694 129.707842 64.0638063 129.707842 63.5297523 129.285342 63.5297523 128.596 63.5297523 128.373632 63.5742568 128.129454 63.7077703 127.884421"/>
    <path fill="#FFF" d="M62.669018,56.7853257 C55.6377342,57.3703257 49.6283423,52.389273 48.5696486,45.7776612 C48.472509,45.1717072 47.9551441,44.7372336 47.3414955,44.7376612 L47.3299414,44.7376612 L47.3188153,44.7376612 C46.7047387,44.7372336 46.1878018,45.1717072 46.0906622,45.7776612 C45.0315405,52.3897007 39.0208649,57.3716086 31.9895811,56.7853257 C25.6613829,56.2576283 20.5390856,51.1393059 20.0110225,44.8150625 C19.4243333,37.7882204 24.4096937,31.7821349 31.0267432,30.7237467 C31.6326892,30.6266743 32.067464,30.1100954 32.0666081,29.4964441 L32.0666081,29.484898 L32.0666081,29.4737796 C32.067464,28.8601283 31.6326892,28.3435493 31.0267432,28.2469046 C24.4096937,27.1880888 19.4243333,21.1820033 20.0110225,14.1555888 C20.5390856,7.83091776 25.6613829,2.71302303 31.990009,2.18489803 C39.0208649,1.59861513 45.0311126,6.58052303 46.0906622,13.1929901 C46.1878018,13.7989441 46.7047387,14.2329901 47.3188153,14.2321349 L47.3299414,14.2321349 L47.3414955,14.2321349 C47.9551441,14.2329901 48.472509,13.7989441 48.5696486,13.1929901 C49.6287703,6.58137829 55.6377342,1.59947039 62.669018,2.18489803 C68.9976441,2.71174013 74.1203694,7.82963487 74.6488604,14.1538783 C75.2364054,21.181148 70.251473,27.1880888 63.6339955,28.2469046 C63.0276216,28.3435493 62.5928468,28.8601283 62.5932748,29.4737796 L62.5932748,29.484898 L62.5932748,29.4964441 C62.5928468,30.1100954 63.0276216,30.6266743 63.6339955,30.7237467 C70.251045,31.7821349 75.2364054,37.7890757 74.6488604,44.816773 C74.1203694,51.1410164 68.9976441,56.2589112 62.669018,56.7853257 M67.1554144,29.4853257 C72.8181847,27.2453914 76.8355721,21.7233849 76.8355721,15.2772664 C76.8355721,6.85335197 69.9775991,0.000128289474 61.5482748,0.000128289474 C55.0976892,0.000128289474 49.5714279,4.01516118 47.3299414,9.67400987 C45.0888829,4.01516118 39.5630495,0.000128289474 33.112464,0.000128289474 C24.6827117,0.000128289474 17.8247387,6.85335197 17.8247387,15.2772664 C17.8247387,21.7233849 21.8425541,27.2453914 27.5048964,29.4853257 C21.8425541,31.7248322 17.8247387,37.2472664 17.8247387,43.6933849 C17.8247387,52.1168717 24.6827117,58.9700954 33.112464,58.9700954 C39.5630495,58.9700954 45.0888829,54.9550625 47.3299414,49.2962138 C49.5714279,54.9550625 55.0976892,58.9700954 61.5482748,58.9700954 C69.9775991,58.9700954 76.8355721,52.1168717 76.8355721,43.6933849 C76.8355721,37.2472664 72.8181847,31.7248322 67.1554144,29.4853257"/>
    <path fill="#FFF" d="M33.1123356 42.3920164C31.815714 42.3920164 30.764723 43.4422796 30.764723 44.7375757 30.764723 46.033727 31.815714 47.0839901 33.1123356 47.0839901 34.4089572 47.0839901 35.4599482 46.033727 35.4599482 44.7375757 35.4599482 43.4422796 34.4089572 42.3920164 33.1123356 42.3920164M33.1123356 12.9309803C31.815714 12.9309803 30.764723 13.9816711 30.764723 15.2769671 30.764723 16.5731184 31.815714 17.6233816 33.1123356 17.6233816 34.4089572 17.6233816 35.4599482 16.5731184 35.4599482 15.2769671 35.4599482 13.9816711 34.4089572 12.9309803 33.1123356 12.9309803M62.5933604 42.3920164C61.2971667 42.3920164 60.2461757 43.4422796 60.2461757 44.7375757 60.2461757 46.033727 61.2971667 47.0839901 62.5933604 47.0839901 63.889982 47.0839901 64.940973 46.033727 64.940973 44.7375757 64.940973 43.4422796 63.889982 42.3920164 62.5933604 42.3920164M62.5933604 17.6232105C63.889982 17.6232105 64.940973 16.5729474 64.940973 15.2772237 64.940973 13.9815 63.889982 12.9308092 62.5933604 12.9308092 61.2971667 12.9308092 60.2461757 13.9815 60.2461757 15.2772237 60.2461757 16.5729474 61.2971667 17.6232105 62.5933604 17.6232105"/>
    <path fill="#FF2439" d="M55.5868964,29.4849836 C55.5868964,34.0418257 51.890027,37.7361349 47.330027,37.7361349 C42.770027,37.7361349 39.0731577,34.0418257 39.0731577,29.4849836 C39.0731577,24.9281414 42.770027,21.2338322 47.330027,21.2338322 C51.890027,21.2338322 55.5868964,24.9281414 55.5868964,29.4849836"/>
  </g>
</svg>
