<svg xmlns="http://www.w3.org/2000/svg" xmlns:xlink="http://www.w3.org/1999/xlink" width="189" height="42" viewBox="0 0 189 42">
  <defs>
    <polygon id="madepossibleby-a" points=".056 .01 23.252 .01 23.252 20.911 .056 20.911"/>
  </defs>
  <g fill="none" fill-rule="evenodd">
    <g transform="translate(110)">
      <path fill="#FFF" d="M16.714259 21.3650081L15.1656536 25.9054088 17.3665929 22.9648382 15.2571967 29.1496476 12.3650709 29.6467861 13.4456707 28.203337 8.37318506 29.0752908 10.5161116 22.8557103 8.28909307 25.8310521 9.85490723 21.2863717 5.06521191 22.1098242 0 36.9050437 2.21051944 33.9518129.0399170845 40.2922901.409283173 40.9367156 4.43221565 40.2450369 3.35161582 41.6886643 5.38916123 41.3384563 6.87318973 36.9838584 4.67420189 39.9221109 6.87922164 33.452178 9.90617851 32.9318587 8.82557868 34.3756644 13.7630559 33.5268914 11.4315434 40.2996009 11.6408863 40.2635816 13.5010224 37.778424 12.1259232 41.7152331 16.9156186 40.8917806 17.0197578 40.5888257 18.0874067 40.4053409 17.1618626 41.6419462 17.0325313 41.8265008 22.2153655 40.9354674 24.5431525 37.5409102 27.5507717 37.0239789 26.4701719 38.4676064 31.9920353 37.5184427 32.1451395 40.4864736 32.1868306 40.4791628 33.3795531 38.8859302 33.5470275 42 38 41.1385667 37.4542891 33.4421924 36.7804887 34.3423198 36.1545888 25.5293453 35.4809659 26.4291161 35.1538232 21.8230959 31.650345 22.4252611 32.7153328 21.0023181 29.7745969 21.5078373 17.6124821 38.8647109 21.7957926 26.6969432 19.5852732 29.6499958 22.320924 21.6592256 17.7567159 22.4438057 18.8373157 21 16.714259 21.3650081zM30.9130321 28.0137896L31.0822805 32.3057994 31.8164001 31.324896 31.9185878 33.913832 29.5774952 34.316286 30.6582724 32.8724803 27.2697555 33.455031 30.9130321 28.0137896zM48.0909937 37.2700911C48.0706694 37.2736354 48.0505217 37.2768253 48.0301973 37.2801924L49.6375911 35.1380152C48.9184613 35.6608 48.1609803 36.0077873 47.2773114 36.1593063 47.0364233 36.2007747 46.8057857 36.2209772 46.5857521 36.2209772 44.9951481 36.2209772 43.9902398 35.1564456 44.1549557 33.2668 44.1696246 33.101281 44.1911861 32.9352304 44.2194635 32.7695342L43.5203047 33.7013316C43.3548819 33.2749519 43.2887834 32.7573063 43.3412734 32.1561924 43.5985978 29.2075089 46.1041526 26.1828 48.9424971 25.6958127 49.1660653 25.6577114 49.3774389 25.6352051 49.5776783 25.6279392L48.3541503 27.2586734C48.8058819 27.0438886 49.2763472 26.8888253 49.7563562 26.8065975 50.0336515 26.7589266 50.2925664 26.7357114 50.5341615 26.7358886 51.763345 26.7358886 52.5445083 27.3370025 53.0167409 28.3901924L56.4010161 26.1236101 53.9041213 29.4515342 58.1312398 26.6201671C57.927996 26.0020405 57.6296694 25.4599392 57.2399714 25.0052051L57.1659199 25.1040911C56.4149781 23.3221924 54.7837253 22.2750278 52.3914568 22.2750278 52.2921324 22.2750278 52.1912174 22.2768 52.0892421 22.2803443L52.8449557 21.2732304C52.449779 21.201281 52.0272085 21.1644203 51.5775978 21.1644203 51.0625955 21.1644203 50.5118931 21.2129772 49.9276112 21.3131038 47.663298 21.7013823 45.6379289 22.6544456 43.937043 23.9415595L46.0594389 21.1128506C41.1506582 23.2351797 37.8959289 28.0501165 37.5307969 32.2359392 37.5228438 32.3268506 37.5163047 32.4168759 37.5111794 32.5061924L38.9886738 30.5369772C38.6436895 31.4802937 38.4245396 32.4285722 38.3444792 33.3463696 38.150779 35.5665215 38.8002756 37.2513063 40.0743494 38.2943949L39.9882801 38.4088759C40.939638 39.8469772 42.6272689 40.6253063 44.8069266 40.6253063 45.0460474 40.6253063 45.2911772 40.6159139 45.5416089 40.5969519L44.7222711 41.6891291C45.0112309 41.7199646 45.3111481 41.7357367 45.6206089 41.7357367 46.1902219 41.7357367 46.7939445 41.6825722 47.4261213 41.5741165 50.6804971 41.0160658 53.0455485 39.3249013 54.8719154 37.1782937L51.9110944 34.9246481C50.7151369 36.2009519 49.5835105 37.0141924 48.0909937 37.2700911"/>
      <g transform="translate(55.494 21.089)">
        <mask id="madepossibleby-b" fill="#fff">
          <use xlink:href="#madepossibleby-a"/>
        </mask>
        <polygon fill="#FFF" points="15.902 13.307 14.529 9.106 23.252 .301 17.208 1.337 12.609 6.127 17.172 .046 16.116 .227 8.454 8.207 10.904 1.121 9.523 1.357 9.986 .01 5.215 .828 1.306 12.22 3.7 9.029 .056 19.646 2.822 19.172 1.704 20.662 5.919 19.938 7.282 15.919 10.477 12.729 12.19 18.255 12.887 17.333 13.99 20.911 19.129 20.03 16.566 12.428" mask="url(#madepossibleby-b)"/>
      </g>
      <path fill="#FFF" d="M19.8060069.304721519L14.7242038.304721519 12.0277765 10.3138354C11.6389622 11.7696582 11.1722083 12.6796582 10.4981456 13.3296835 9.875866 13.9536582 9.02029776 14.2914304 8.0609868 14.2914304 6.24610761 14.2914304 5.23501365 13.2775823 5.23501365 11.6397595 5.23501365 11.0418354 5.33857964 10.4958354 5.4942821 9.92378481L8.0609868.304721519 2.9793604.304721519.490241834 9.55996203C.230973378 10.5477595.075447651 11.5617848.075447651 12.4716076.075447651 16.4754304 2.74589508 18.8410759 7.41272729 18.8410759 10.2128973 18.8410759 12.4945304 18.1132532 14.1021009 16.5013038 15.3724633 15.227481 16.2798145 13.4595823 16.928074 11.0677089L19.8060069.304721519zM67.9267803 11.3277899L71.3232501 6.10224557 71.9715096 11.3277899 67.9267803 11.3277899zM53.2000846 9.03994177L50.3221517 9.03994177 51.5147512 4.6722962 54.2371584 4.6722962C55.3002121 4.6722962 56.0522143 4.88034684 56.4668318 5.29627089 56.77806 5.63422025 56.9335857 6.02427089 56.9335857 6.51816962 56.9335857 8.07801772 55.4557378 9.03994177 53.2000846 9.03994177L53.2000846 9.03994177zM78.3173128 17.9529797L77.9901785 17.2388025 77.9424604 17.3777392 77.8860823 17.0114354 75.2900398.174751899 70.3639391.174751899 58.782221 16.9864481 56.6741405 12.3676886C60.3818385 11.3536633 62.1189548 8.96196709 62.1189548 5.92024557 62.1189548 4.46442278 61.6783575 3.16454937 60.7188698 2.2024481 59.5002904.980549367 57.5039056.304650633 54.470447.304650633L31.6548228.304650633 30.4622233 4.72422025 35.9068609 4.72422025 32.1991629 18.5030557 37.2549861 18.5030557 40.9367043 4.72422025 46.4419615 4.72422025 42.7514067 18.5030557 47.80723 18.5030557 49.2850779 12.9916633 51.5147512 12.9916633 53.9259302 18.5030557 63.2079884 18.5030557 65.3858787 15.2534608 72.3861271 15.2534608 72.8270779 18.5030557 78.116013 18.5030557 78.0386036 18.0008278 78.3173128 17.9529797z"/>
      <polygon fill="#FFF" points="26.443 .305 21.388 .305 16.513 18.503 30.229 18.503 31.421 14.084 22.762 14.084"/>
    </g>
    <path fill="#FFF" fill-rule="nonzero" d="M2.805,25.534 L2.805,30 L0.891,30 L0.891,14.6 L3.861,14.6 L5.115,24.676 L6.369,14.6 L9.339,14.6 L9.339,30 L7.425,30 L7.425,25.534 C7.425,23.73 7.469,21.552 7.557,19.022 L6.061,30 L4.169,30 L2.673,19.022 C2.761,21.046 2.805,23.224 2.805,25.534 Z M14.707,14.6 L16.555,30 L14.487,30 L14.179,27.052 L12.419,27.052 L12.089,30 L10.175,30 L12.045,14.6 L14.707,14.6 Z M14.025,25.49 L13.343,18.956 L12.595,25.49 L14.025,25.49 Z M20.207,30 L17.413,30 L17.413,14.6 L20.207,14.6 C22.033,14.6 23.265,15.744 23.265,18.054 L23.265,26.546 C23.265,28.856 22.033,30 20.207,30 Z M19.459,16.382 L19.459,28.218 L19.921,28.218 C20.779,28.218 21.219,27.646 21.219,26.48 L21.219,18.12 C21.219,16.954 20.779,16.382 19.921,16.382 L19.459,16.382 Z M29.997,30 L24.585,30 L24.585,14.6 L29.909,14.6 L29.909,16.382 L26.631,16.382 L26.631,20.782 L28.809,20.782 L28.809,22.542 L26.631,22.542 L26.631,28.218 L29.997,28.218 L29.997,30 Z M34.903,23.444 L34.903,30 L32.857,30 L32.857,14.6 L35.629,14.6 C37.411,14.6 38.709,15.788 38.709,18.01 L38.709,20.012 C38.709,22.234 37.477,23.444 35.629,23.444 L34.903,23.444 Z M34.903,16.382 L34.903,21.662 L35.497,21.662 C36.289,21.662 36.685,21.134 36.685,20.056 L36.685,17.966 C36.685,16.91 36.289,16.382 35.497,16.382 L34.903,16.382 Z M39.743,27.14 L39.743,17.46 C39.743,15.612 40.865,14.446 42.735,14.446 C44.605,14.446 45.727,15.612 45.727,17.46 L45.727,27.14 C45.727,28.988 44.605,30.154 42.735,30.154 C40.865,30.154 39.743,28.988 39.743,27.14 Z M43.659,27.206 L43.659,17.394 C43.659,16.624 43.351,16.228 42.735,16.228 C42.119,16.228 41.811,16.624 41.811,17.394 L41.811,27.206 C41.811,27.976 42.119,28.372 42.735,28.372 C43.351,28.372 43.659,27.976 43.659,27.206 Z M52.525,17.218 L52.525,19.748 L50.633,19.748 L50.633,17.306 C50.633,16.558 50.347,16.184 49.753,16.184 C49.225,16.184 48.917,16.602 48.917,17.196 L48.917,18.582 C48.917,19.506 49.225,20.254 49.819,20.826 L51.183,22.124 C52.195,23.07 52.701,24.346 52.701,25.996 L52.701,27.162 C52.701,28.944 51.579,30.154 49.753,30.154 C47.927,30.154 46.849,29.032 46.849,27.272 L46.849,24.302 L48.763,24.302 L48.763,27.272 C48.763,27.954 49.093,28.394 49.709,28.394 C50.303,28.394 50.633,27.976 50.633,27.338 L50.633,25.93 C50.633,24.918 50.325,24.148 49.731,23.598 L48.455,22.41 C47.377,21.42 46.849,20.144 46.849,18.604 L46.849,17.306 C46.849,15.546 47.993,14.446 49.731,14.446 C51.557,14.446 52.525,15.546 52.525,17.218 Z M59.257,17.218 L59.257,19.748 L57.365,19.748 L57.365,17.306 C57.365,16.558 57.079,16.184 56.485,16.184 C55.957,16.184 55.649,16.602 55.649,17.196 L55.649,18.582 C55.649,19.506 55.957,20.254 56.551,20.826 L57.915,22.124 C58.927,23.07 59.433,24.346 59.433,25.996 L59.433,27.162 C59.433,28.944 58.311,30.154 56.485,30.154 C54.659,30.154 53.581,29.032 53.581,27.272 L53.581,24.302 L55.495,24.302 L55.495,27.272 C55.495,27.954 55.825,28.394 56.441,28.394 C57.035,28.394 57.365,27.976 57.365,27.338 L57.365,25.93 C57.365,24.918 57.057,24.148 56.463,23.598 L55.187,22.41 C54.109,21.42 53.581,20.144 53.581,18.604 L53.581,17.306 C53.581,15.546 54.725,14.446 56.463,14.446 C58.289,14.446 59.257,15.546 59.257,17.218 Z M62.601,14.6 L62.601,30 L60.555,30 L60.555,14.6 L62.601,14.6 Z M66.957,30 L64.053,30 L64.053,14.6 L66.935,14.6 C68.695,14.6 69.905,15.48 69.905,17.658 L69.905,19.308 C69.905,20.606 69.487,21.464 68.651,21.86 C69.553,22.278 70.015,23.136 70.015,24.434 L70.015,26.722 C70.015,28.9 68.805,30 66.957,30 Z M66.099,16.338 L66.099,21.156 L66.671,21.156 C67.441,21.156 67.881,20.65 67.881,19.792 L67.881,17.812 C67.881,16.822 67.485,16.338 66.693,16.338 L66.099,16.338 Z M66.099,22.806 L66.099,28.262 L66.825,28.262 C67.595,28.262 67.969,27.756 67.969,26.722 L67.969,24.214 C67.969,23.312 67.507,22.806 66.737,22.806 L66.099,22.806 Z M76.219,28.218 L76.219,30 L71.225,30 L71.225,14.6 L73.271,14.6 L73.271,28.218 L76.219,28.218 Z M82.511,30 L77.099,30 L77.099,14.6 L82.423,14.6 L82.423,16.382 L79.145,16.382 L79.145,20.782 L81.323,20.782 L81.323,22.542 L79.145,22.542 L79.145,28.218 L82.511,28.218 L82.511,30 Z M88.275,30 L85.371,30 L85.371,14.6 L88.253,14.6 C90.013,14.6 91.223,15.48 91.223,17.658 L91.223,19.308 C91.223,20.606 90.805,21.464 89.969,21.86 C90.871,22.278 91.333,23.136 91.333,24.434 L91.333,26.722 C91.333,28.9 90.123,30 88.275,30 Z M87.417,16.338 L87.417,21.156 L87.989,21.156 C88.759,21.156 89.199,20.65 89.199,19.792 L89.199,17.812 C89.199,16.822 88.803,16.338 88.011,16.338 L87.417,16.338 Z M87.417,22.806 L87.417,28.262 L88.143,28.262 C88.913,28.262 89.287,27.756 89.287,26.722 L89.287,24.214 C89.287,23.312 88.825,22.806 88.055,22.806 L87.417,22.806 Z M96.349,23.62 L96.349,30 L94.303,30 L94.303,23.686 L91.971,14.6 L94.193,14.6 L95.337,20.452 L96.591,14.6 L98.681,14.6 L96.349,23.62 Z"/>
  </g>
</svg>
