<svg xmlns="http://www.w3.org/2000/svg" xmlns:xlink="http://www.w3.org/1999/xlink" width="17" height="20" viewBox="0 0 17 20">
  <defs>
    <polygon id="some-youtube-a" points="0 0 16.667 0 16.667 20 0 20"/>
  </defs>
  <g fill="none" fill-rule="evenodd">
    <mask id="some-youtube-b" fill="#fff">
      <use xlink:href="#some-youtube-a"/>
    </mask>
    <path fill="#FFF" d="M4.04045714,7.83008571 L5.25931429,7.83008571 L5.26074286,3.61665714 L6.70074286,0.00722857143 L5.36788571,0.00722857143 L4.60217143,2.68837143 L3.8256,8.57142857e-05 L2.50674286,8.57142857e-05 L4.03874286,3.61894286 L4.04045714,7.83008571 Z M7.6156,6.35322857 C7.6156,6.66465714 7.84731429,6.91865714 8.12902857,6.91865714 C8.41102857,6.91865714 8.6416,6.66465714 8.6416,6.35322857 L8.6416,3.42894286 C8.6416,3.11808571 8.41102857,2.86408571 8.12902857,2.86408571 C7.84731429,2.86408571 7.6156,3.11808571 7.6156,3.42894286 L7.6156,6.35322857 Z M6.60388571,4.17094286 C6.60388571,3.6438 6.64817143,3.23208571 6.73531429,2.93522857 C6.82302857,2.63951429 6.98131429,2.40151429 7.21017143,2.22208571 C7.43845714,2.04208571 7.73045714,1.95208571 8.08588571,1.95208571 C8.38474286,1.95208571 8.64074286,2.01065714 8.85474286,2.12551429 C9.0696,2.24094286 9.23531429,2.39122857 9.35045714,2.57608571 C9.4676,2.76208571 9.54674286,2.95294286 9.5896,3.14808571 C9.63274286,3.34608571 9.65417143,3.64522857 9.65417143,4.0478 L9.65417143,5.43694286 C9.65417143,5.94637143 9.6336,6.32151429 9.59417143,6.55951429 C9.55531429,6.79808571 9.47074286,7.01951429 9.33988571,7.22722857 C9.21102857,7.43237143 9.04445714,7.58608571 8.84274286,7.6838 C8.63874286,7.78294286 8.40531429,7.83122857 8.1416,7.83122857 C7.84731429,7.83122857 7.59902857,7.79065714 7.39445714,7.70522857 C7.1896,7.62122857 7.03131429,7.4938 6.91845714,7.32465714 C6.80445714,7.15551429 6.72417143,6.94894286 6.67588571,6.70865714 C6.62731429,6.46808571 6.60388571,6.10722857 6.60388571,5.62551429 L6.60388571,4.17094286 Z M10.5187429,7.27408571 C10.5781714,7.41922857 10.6710286,7.53694286 10.7973143,7.6258 C10.9216,7.71322857 11.0813143,7.75722857 11.2716,7.75722857 C11.4384571,7.75722857 11.5864571,7.71208571 11.7153143,7.61922857 C11.8438857,7.52665714 11.9521714,7.3878 12.0404571,7.20351429 L12.0187429,7.6578 L13.3104571,7.6578 L13.3104571,2.16465714 L12.2936,2.16465714 L12.2936,6.44037143 C12.2936,6.67151429 12.1024571,6.86094286 11.8693143,6.86094286 C11.6376,6.86094286 11.4461714,6.67151429 11.4461714,6.44037143 L11.4461714,2.16465714 L10.3850286,2.16465714 L10.3850286,5.87008571 C10.3850286,6.3418 10.3933143,6.65665714 10.4070286,6.8158 C10.4227429,6.97437143 10.4590286,7.12665714 10.5187429,7.27408571 L10.5187429,7.27408571 Z M14.9756,16.2132286 L14.1067429,16.2178 C14.1061714,16.2523714 14.1053143,16.2920857 14.1047429,16.3355143 L14.1047429,16.8203714 C14.1047429,17.0798 13.8904571,17.2909429 13.6298857,17.2909429 L13.4598857,17.2909429 C13.1990286,17.2909429 12.9850286,17.0798 12.9850286,16.8203714 L12.9850286,16.7663714 L12.9850286,16.2332286 L12.9850286,15.5449429 L14.9747429,15.5449429 L14.9747429,14.7960857 C14.9747429,14.2489429 14.9607429,13.7015143 14.9156,13.3886571 C14.7730286,12.3989429 13.3836,12.2415143 12.6818857,12.7483714 C12.4616,12.9069429 12.2936,13.1183714 12.1953143,13.4032286 C12.0964571,13.6880857 12.0476,14.0769429 12.0476,14.5709429 L12.0476,16.2169429 C12.0476,18.9549429 15.3724571,18.5675143 14.9756,16.2132286 L14.9756,16.2132286 Z M11.3490286,16.5792286 L11.3464571,13.8175143 C11.3456,12.7649429 10.5581714,12.1346571 9.48902857,12.9863714 L9.49417143,10.9329429 L8.33588571,10.9346571 L8.33045714,18.0215143 L9.28217143,18.0072286 L9.36902857,17.5658 C10.5858857,18.6826571 11.3507429,17.9180857 11.3490286,16.5792286 L11.3490286,16.5792286 Z M7.6416,12.7795143 L6.48274286,12.7795143 L6.48274286,16.0978 C6.48274286,16.5775143 6.5116,16.8175143 6.48102857,16.9023714 C6.38674286,17.1595143 5.96302857,17.4326571 5.79817143,16.9303714 C5.77017143,16.8420857 5.79502857,16.5763714 5.79445714,16.1206571 L5.7896,12.7795143 L4.63731429,12.7795143 L4.64074286,16.0680857 C4.6416,16.5720857 4.6296,16.9480857 4.64445714,17.1189429 C4.67274286,17.4200857 4.66302857,17.7723714 4.94274286,17.9726571 C5.46388571,18.3483714 6.46302857,17.9169429 6.71302857,17.3798 L6.71102857,18.0646571 L7.6416,18.0658 L7.6416,12.7795143 Z M3.47502857,18.0675143 L3.47417143,11.8543714 L4.86417143,11.8546571 L4.86417143,10.9340857 L1.15902857,10.9286571 L1.15902857,11.8338 L2.3156,11.8366571 L2.3156,18.0675143 L3.47502857,18.0675143 Z M16.6667429,11.5283714 L16.6667429,17.4275143 C16.6667429,18.8420857 15.4396,20.0000857 13.9401714,20.0000857 L2.72702857,20.0000857 C1.22645714,20.0000857 -0.000114285714,18.8420857 -0.000114285714,17.4275143 L-0.000114285714,11.5283714 C-0.000114285714,10.1138 1.22645714,8.9558 2.72702857,8.9558 L13.9401714,8.9558 C15.4396,8.9558 16.6667429,10.1138 16.6667429,11.5283714 L16.6667429,11.5283714 Z M9.98102857,13.2629429 C9.70217143,13.2629429 9.47474286,13.4500857 9.47474286,13.6792286 L9.47474286,16.7800857 C9.47474286,17.0086571 9.70217143,17.1952286 9.98102857,17.1952286 C10.2607429,17.1952286 10.4881714,17.0086571 10.4881714,16.7800857 L10.4881714,13.6792286 C10.4881714,13.4500857 10.2607429,13.2629429 9.98102857,13.2629429 L9.98102857,13.2629429 Z M14.0981714,14.6295143 L12.9998857,14.6295143 L13.0053143,13.9915143 C13.0053143,13.7080857 13.2378857,13.4766571 13.5227429,13.4766571 L13.5927429,13.4766571 C13.8778857,13.4766571 14.1107429,13.7080857 14.1107429,13.9915143 L14.0981714,14.6295143 Z" mask="url(#some-youtube-b)"/>
  </g>
</svg>
