<svg xmlns="http://www.w3.org/2000/svg" width="20" height="20" viewBox="0 0 20 20">
  <path fill="#FFF" fill-rule="evenodd" d="M140.254857,20.1111429 L144.541429,20.1111429 L144.541429,7.216 L140.254857,7.216 L140.254857,20.1111429 Z M142.426571,1 C140.959429,1 140,1.96257143 140,3.22742857 C140,4.46542857 140.932,5.45685714 142.369714,5.45685714 L142.398571,5.45685714 C143.893714,5.45685714 144.823714,4.46542857 144.823714,3.22742857 C144.795429,1.96257143 143.893714,1 142.426571,1 L142.426571,1 Z M160,12.7171429 L160,20.1111429 L155.713429,20.1111429 L155.713429,13.2125714 C155.713429,11.4791429 155.093143,10.2965714 153.541714,10.2965714 C152.357143,10.2965714 151.652286,11.0937143 151.342,11.8648571 C151.229143,12.1405714 151.2,12.524 151.2,12.91 L151.2,20.1111429 L146.912286,20.1111429 C146.912286,20.1111429 146.970286,8.42685714 146.912286,7.216 L151.2,7.216 L151.2,9.044 C151.191429,9.05771429 151.180286,9.07228571 151.172,9.08571429 L151.2,9.08571429 L151.2,9.044 C151.769429,8.16657143 152.786857,6.91342857 155.064,6.91342857 C157.885429,6.91342857 160,8.75657143 160,12.7171429 L160,12.7171429 Z" transform="translate(-140 -1)"/>
</svg>
