<svg xmlns="http://www.w3.org/2000/svg" xmlns:xlink="http://www.w3.org/1999/xlink" width="20" height="20" viewBox="0 0 20 20">
  <defs>
    <polygon id="some-ig-a" points="0 .241 19.42 .241 19.42 19.661 0 19.661"/>
  </defs>
  <g fill="none" fill-rule="evenodd">
    <g transform="translate(0 .098)">
      <mask id="some-ig-b" fill="#fff">
        <use xlink:href="#some-ig-a"/>
      </mask>
      <path fill="#FFF" d="M9.71016949,0.240983051 C7.07288136,0.240983051 6.74237288,0.252169492 5.70644068,0.299288136 C4.67322034,0.346745763 3.96745763,0.510813559 3.34949153,0.750813559 C2.71118644,0.998610169 2.16949153,1.33081356 1.62983051,1.87081356 C1.08983051,2.41047458 0.757966102,2.95183051 0.509491525,3.59047458 C0.269491525,4.20810169 0.105423729,4.91386441 0.0583050847,5.94742373 C0.0111864407,6.98335593 0,7.31386441 0,9.95115254 C0,12.5881017 0.0111864407,12.9186102 0.0583050847,13.9542034 C0.105423729,14.9881017 0.269491525,15.6938644 0.509491525,16.3114915 C0.757966102,16.9497966 1.08983051,17.4914915 1.62983051,18.0311525 C2.16949153,18.5711525 2.71118644,18.9033559 3.34949153,19.1511525 C3.96745763,19.3911525 4.67322034,19.5555593 5.70644068,19.602678 C6.74237288,19.6497966 7.07288136,19.6609831 9.71016949,19.6609831 C12.3471186,19.6609831 12.6779661,19.6497966 13.7135593,19.602678 C14.7467797,19.5555593 15.4525424,19.3911525 16.0705085,19.1511525 C16.7088136,18.9033559 17.2505085,18.5711525 17.7905085,18.0311525 C18.3301695,17.4914915 18.6620339,16.9497966 18.9105085,16.3114915 C19.1505085,15.6938644 19.3145763,14.9881017 19.3616949,13.9542034 C19.4088136,12.9186102 19.420339,12.5881017 19.420339,9.95115254 C19.420339,7.31386441 19.4088136,6.98335593 19.3616949,5.94742373 C19.3145763,4.91386441 19.1505085,4.20810169 18.9105085,3.59047458 C18.6620339,2.95183051 18.3301695,2.41047458 17.7905085,1.87081356 C17.2505085,1.33081356 16.7088136,0.998610169 16.0705085,0.750813559 C15.4525424,0.510813559 14.7467797,0.346745763 13.7135593,0.299288136 C12.6779661,0.252169492 12.3471186,0.240983051 9.71016949,0.240983051 M9.71016949,1.99047458 C12.3027119,1.99047458 12.6098305,2.00030508 13.6335593,2.04708475 C14.580339,2.09013559 15.0945763,2.24844068 15.4369492,2.38132203 C15.8898305,2.55759322 16.2135593,2.76810169 16.5532203,3.10776271 C16.8928814,3.44742373 17.1037288,3.77081356 17.279661,4.22437288 C17.4125424,4.56640678 17.5705085,5.08030508 17.6138983,6.02708475 C17.660678,7.05115254 17.6705085,7.35827119 17.6705085,9.95115254 C17.6705085,12.5436949 17.660678,12.8508136 17.6138983,13.8748814 C17.5705085,14.821322 17.4125424,15.3355593 17.279661,15.6775932 C17.1037288,16.1308136 16.8928814,16.4542034 16.5532203,16.7942034 C16.2135593,17.1338644 15.8898305,17.3443729 15.4369492,17.5206441 C15.0945763,17.6535254 14.580339,17.8114915 13.6335593,17.8548814 C12.6101695,17.901661 12.3027119,17.9114915 9.71016949,17.9114915 C7.11728814,17.9114915 6.80983051,17.901661 5.78644068,17.8548814 C4.83966102,17.8114915 4.32542373,17.6535254 3.98305085,17.5206441 C3.53016949,17.3443729 3.20644068,17.1338644 2.86677966,16.7942034 C2.52711864,16.4542034 2.31661017,16.1308136 2.14067797,15.6775932 C2.00745763,15.3355593 1.84949153,14.821322 1.80644068,13.8748814 C1.75932203,12.8508136 1.74983051,12.5436949 1.74983051,9.95115254 C1.74983051,7.35827119 1.75932203,7.05115254 1.80644068,6.02708475 C1.84949153,5.08030508 2.00745763,4.56640678 2.14067797,4.22437288 C2.31661017,3.77081356 2.52711864,3.44742373 2.86677966,3.10776271 C3.20644068,2.76810169 3.53016949,2.55759322 3.98305085,2.38132203 C4.32542373,2.24844068 4.83966102,2.09013559 5.78644068,2.04708475 C6.81016949,2.00030508 7.11762712,1.99047458 9.71016949,1.99047458" mask="url(#some-ig-b)"/>
    </g>
    <path fill="#FFF" d="M9.71016949 13.2856271C7.92271186 13.2856271 6.47322034 11.8368136 6.47322034 10.0490169 6.47322034 8.26155932 7.92271186 6.81240678 9.71016949 6.81240678 11.4976271 6.81240678 12.9467797 8.26155932 12.9467797 10.0490169 12.9467797 11.8368136 11.4976271 13.2856271 9.71016949 13.2856271M9.71016949 5.06257627C6.95627119 5.06257627 4.72372881 7.29511864 4.72372881 10.0490169 4.72372881 12.8029153 6.95627119 15.0351186 9.71016949 15.0351186 12.4637288 15.0351186 14.6962712 12.8029153 14.6962712 10.0490169 14.6962712 7.29511864 12.4637288 5.06257627 9.71016949 5.06257627M16.0585085 4.86569492C16.0585085 5.50908475 15.5368136 6.03111864 14.8930847 6.03111864 14.2496949 6.03111864 13.728 5.50908475 13.728 4.86569492 13.728 4.22230508 14.2496949 3.70027119 14.8930847 3.70027119 15.5368136 3.70027119 16.0585085 4.22230508 16.0585085 4.86569492"/>
  </g>
</svg>
