<svg xmlns="http://www.w3.org/2000/svg" width="20" height="17" viewBox="0 0 20 17">
  <path fill="#FFF" fill-rule="evenodd" d="M49,5.924 C48.264,6.25 47.4731429,6.47085714 46.6431429,6.57 C47.4905714,6.062 48.1411429,5.25828571 48.4474286,4.29942857 C47.6545714,4.77 46.7765714,5.11142857 45.8417143,5.29542857 C45.0934286,4.498 44.0268571,4 42.8465714,4 C40.5808571,4 38.7434286,5.83685714 38.7434286,8.10285714 C38.7434286,8.42457143 38.7797143,8.73771429 38.8497143,9.03771429 C35.4397143,8.86714286 32.4162857,7.23342857 30.3925714,4.75085714 C30.0391429,5.35685714 29.8368571,6.06171429 29.8368571,6.81342857 C29.8368571,8.23714286 30.5611429,9.49314286 31.6622857,10.2288571 C30.9894286,10.2074286 30.3568571,10.0231429 29.8037143,9.71571429 C29.8034286,9.73285714 29.8034286,9.75 29.8034286,9.76742857 C29.8034286,11.7554286 31.2177143,13.414 33.0948571,13.7905714 C32.7505714,13.8845714 32.388,13.9345714 32.014,13.9345714 C31.7494286,13.9345714 31.4925714,13.9088571 31.242,13.8608571 C31.764,15.4908571 33.2794286,16.6777143 35.0748571,16.7105714 C33.6705714,17.8111429 31.9014286,18.4668571 29.9788571,18.4668571 C29.6477143,18.4668571 29.3211429,18.4474286 29,18.4094286 C30.8157143,19.574 32.9728571,20.2531429 35.29,20.2531429 C42.8371429,20.2531429 46.9642857,14.0011429 46.9642857,8.57857143 C46.9642857,8.40085714 46.9605714,8.224 46.9522857,8.048 C47.7542857,7.46914286 48.45,6.74657143 49,5.924" transform="translate(-29 -4)"/>
</svg>
